PathFileType	4	(X/Y/Z)	C:\Users\Basilio\Documents\Thesis Gigler\squatting_fais\c3dfiles\044\SJ_pre2\markers_experimental.trc
DataRate	CameraRate	NumFrames	NumMarkers	Units	OrigDataRate	OrigDataStartFrame	OrigNumFrames
200.000000	200.000000	4	62	mm	200.000000	213	1708
Frame#	Time	FHD			LBHD			RBHD			C7			T10			CLAV			LSHO			LUUPA			LMUPA			LDUPA			LLEP			LMEP			LRAD			LUL			LRFIN			RSHO			RUPA1			RMUPA			RDUPA			RLEP			RMEP			RRAD			RUL			RUFIN			LASI			RASI			USACR			LSACR			LTHI1			LTHI2			LTHI3			LTHI4			LLFC			LMFC			LTIB1			LTIB2			LTIB3			LTIB4			LLMAL			LMMAL			LHEE			LMT1			LMT2			LMT5			RTHI			RTHI2			RTHI3			RTHI4			RLFC			RMFC			RTIB1			RTIB2			RTIB3			RTIB4			RLMAL			RMMAL			RHEE			RMT1			RMT2			RMT5			RSACR			*61			
		X1	Y1	Z1	X2	Y2	Z2	X3	Y3	Z3	X4	Y4	Z4	X5	Y5	Z5	X6	Y6	Z6	X7	Y7	Z7	X8	Y8	Z8	X9	Y9	Z9	X10	Y10	Z10	X11	Y11	Z11	X12	Y12	Z12	X13	Y13	Z13	X14	Y14	Z14	X15	Y15	Z15	X16	Y16	Z16	X17	Y17	Z17	X18	Y18	Z18	X19	Y19	Z19	X20	Y20	Z20	X21	Y21	Z21	X22	Y22	Z22	X23	Y23	Z23	X24	Y24	Z24	X25	Y25	Z25	X26	Y26	Z26	X27	Y27	Z27	X28	Y28	Z28	X29	Y29	Z29	X30	Y30	Z30	X31	Y31	Z31	X32	Y32	Z32	X33	Y33	Z33	X34	Y34	Z34	X35	Y35	Z35	X36	Y36	Z36	X37	Y37	Z37	X38	Y38	Z38	X39	Y39	Z39	X40	Y40	Z40	X41	Y41	Z41	X42	Y42	Z42	X43	Y43	Z43	X44	Y44	Z44	X45	Y45	Z45	X46	Y46	Z46	X47	Y47	Z47	X48	Y48	Z48	X49	Y49	Z49	X50	Y50	Z50	X51	Y51	Z51	X52	Y52	Z52	X53	Y53	Z53	X54	Y54	Z54	X55	Y55	Z55	X56	Y56	Z56	X57	Y57	Z57	X58	Y58	Z58	X59	Y59	Z59	X60	Y60	Z60	X61	Y61	Z61	X62	Y62	Z62	

214	1.065	-274.9409484863282	1745.219482421875	-865.270202636719	-381.6449584960938	1727.279541015625	-980.3859863281252	-471.6076660156251	1709.073608398438	-842.9077758789065	-495.4290161132814	1540.646118164063	-924.6065063476565	-532.7443847656251	1235.8388671875	-929.8967285156252	-362.8277893066407	1485.621826171875	-910.730895996094	-385.5968627929689	1532.174072265625	-1095.322021484375	-455.1752319335939	1368.168212890625	-1250.550170898438	-424.6579895019532	1327.977905273438	-1243.353515625	-465.1324157714845	1308.65234375	-1285.404663085938	-464.4671325683595	1249.766967773438	-1301.254150390625	-535.7175292968751	1242.302368164063	-1255.673461914063	-431.687225341797	1018.684020996094	-1140.57470703125	-393.2931518554689	998.8002929687502	-1195.02001953125	-379.5130310058594	1007.574340820313	-1097.657104492188	-428.2802124023439	1507.194580078125	-720.7229003906251	-514.9458618164064	1338.91748046875	-592.9833374023439	-482.0947265625001	1300.58154296875	-591.8822631835939	-525.9223022460939	1277.594116210938	-559.5327148437501	-521.4794921875001	1216.288452148438	-543.9000244140626	-588.4359130859376	1203.834350585938	-599.3557128906251	-452.3244018554689	997.219909667969	-705.8376464843751	-426.1471557617189	975.6658935546877	-642.2689208984376	-388.9926147460939	994.5463867187502	-742.1424560546876	-348.1904907226563	1027.912963867188	-1034.27880859375	-352.1094055175782	1005.890014648438	-814.411560058594	-516.5242919921876	1083.498413085938	-923.7163085937502	-521.7236328125001	1051.706787109375	-951.2305908203127	-468.3728942871095	808.6673583984377	-1123.460815429688	-441.0411682128907	729.4177856445314	-1131.831909179688	-393.1142578125001	727.9244995117189	-1125.554077148438	-472.124725341797	677.8484497070314	-1121.818359375	-468.2712707519532	517.7682495117189	-1122.374389648438	-451.9000854492189	497.2958068847657	-1003.390808105469	-440.9644165039064	336.4040222167969	-1075.786865234375	-473.4649047851564	298.4024353027344	-1150.277587890625	-439.9923706054689	293.5892028808594	-1117.283935546875	-450.2641601562501	212.2203216552735	-1096.935302734375	-502.092742919922	97.15274810791018	-1154.223266601563	-476.0757141113282	99.61002349853518	-1071.41162109375	-555.4739990234376	48.29274368286134	-1105.633666992188	-338.5811157226563	61.89409255981447	-1103.3955078125	-343.3446655273438	64.12027740478517	-1149.513061523438	-381.7159729003907	42.0068588256836	-1194.005004882813	-465.2046508789064	754.7623291015626	-736.0223388671876	-427.5500793457032	699.7324218750001	-726.4705200195314	-394.2747497558595	700.2723999023439	-730.8469848632814	-454.3819580078126	620.2613525390626	-740.1943969726564	-459.8685302734376	506.3720703125001	-743.1482543945314	-460.279510498047	491.7879943847657	-866.0780029296877	-421.4741821289064	375.8917846679688	-758.4799194335939	-496.0974426269532	311.1534118652344	-709.3671875000001	-453.9091796875001	300.9916992187501	-724.5727539062501	-445.5189514160157	248.1512603759766	-746.0689697265626	-516.1522216796876	96.51465606689456	-723.1320190429689	-491.9636230468751	99.6250915527344	-804.4187622070315	-567.7062377929689	49.97590255737306	-768.3699340820315	-355.2263793945313	62.85837936401369	-772.3416137695315	-351.4904174804688	60.2953338623047	-734.9730224609376	-389.3856506347657	41.18426132202149	-683.4074096679689	nan	nan	nan	nan	nan	nan	
215	1.07	-275.0060424804688	1745.345703125	-865.7034301757815	-381.8815307617188	1727.2392578125	-980.5579833984377	-471.636199951172	1709.047973632813	-842.8215332031252	-495.445770263672	1540.623168945313	-924.6155395507815	-532.6803588867189	1235.898315429688	-929.911315917969	-362.8273315429688	1485.541748046875	-910.7437133789065	-385.6163330078126	1532.2021484375	-1095.322998046875	-455.1791381835939	1368.202514648438	-1250.538818359375	-424.5587768554689	1328.019897460938	-1243.372192382813	-465.189422607422	1308.63525390625	-1285.372436523438	-464.4068603515626	1249.759033203125	-1301.25	-535.7263793945314	1242.294799804688	-1255.686645507813	-431.7403564453126	1018.666442871094	-1140.607177734375	-393.3252868652345	998.7401123046877	-1195.017944335938	-379.5109558105469	1007.555480957031	-1097.690673828125	-428.1885375976564	1507.250366210938	-720.7336425781251	-514.8947753906251	1338.851684570313	-593.0299072265626	-481.8744201660157	1300.576538085938	-591.9943237304689	-525.8150024414064	1277.624267578125	-559.4995117187501	-521.2580566406251	1216.13427734375	-543.8249511718751	-588.2694702148439	1203.837280273438	-599.4080810546876	-452.3047790527345	997.2031860351565	-705.8623657226564	-426.1394042968751	975.6484985351565	-642.2546386718751	-388.9476623535157	994.4890747070315	-742.1593017578126	-348.1902465820313	1027.898193359375	-1034.283203125	-352.0151977539063	1005.903747558594	-814.4255981445315	-516.5532226562501	1083.566528320313	-923.6560668945315	-521.6782226562501	1051.748901367188	-951.226501464844	-468.4804077148439	808.6499023437502	-1123.446655273438	-441.0702514648439	729.4429931640626	-1131.641967773438	-393.2788696289064	727.9037475585939	-1125.534545898438	-472.2207031250001	677.8752441406251	-1121.794189453125	-468.3985595703126	517.7475585937501	-1122.389892578125	-452.0153198242189	497.2837524414064	-1003.342712402344	-440.9681701660157	336.4330139160157	-1075.759643554688	-473.594696044922	298.3685913085938	-1150.307250976563	-440.0840759277345	293.6448059082032	-1117.248168945313	-450.2673645019532	212.2523803710938	-1096.940185546875	-502.0444641113282	97.13016510009768	-1154.19775390625	-476.0576477050782	99.62718200683597	-1071.346069335938	-555.4627685546876	48.2594451904297	-1105.573120117188	-338.6273498535157	61.88063049316408	-1103.289306640625	-343.3531799316407	64.18553161621095	-1149.539916992188	-381.6509399414063	42.00752258300782	-1194.004150390625	-465.2296142578126	754.8209838867189	-736.0504150390626	-427.4931640625001	699.7314453125001	-726.4736938476564	-394.2733764648439	700.2901611328126	-730.8920288085939	-454.414031982422	620.2902832031251	-740.2217407226564	-459.8413696289064	506.336395263672	-743.1644287109376	-460.2898254394532	491.7830505371095	-866.0537109375002	-421.4719238281251	375.8738098144532	-758.4923706054689	-496.129852294922	311.1107177734376	-709.3455200195314	-453.8706359863282	300.9624938964844	-724.5687255859376	-445.5052185058595	248.1110076904297	-746.1256713867189	-516.1874389648439	96.52898406982425	-723.1237182617189	-491.9990539550782	99.60523223876956	-804.4285888671877	-567.6923217773439	50.0322723388672	-768.4285278320315	-355.2446289062501	62.88798141479494	-772.3377685546877	-351.4736938476563	60.27734375000001	-734.9452514648439	-389.3901672363282	41.23368072509766	-683.4136352539064	nan	nan	nan	nan	nan	nan	
216	1.075	-275.0384826660157	1745.49609375	-866.0616455078127	-382.2144470214844	1727.225830078125	-980.6036376953127	-471.6332397460939	1709.041625976563	-842.7606201171877	-495.353485107422	1540.63330078125	-924.6011962890627	-532.6464233398439	1235.865478515625	-929.852478027344	-362.8010253906251	1485.631225585938	-910.7847900390627	-385.5417785644532	1532.201171875	-1095.347534179688	-455.3142395019532	1368.188720703125	-1250.508911132813	-424.6056518554689	1327.986083984375	-1243.390747070313	-465.2146301269532	1308.665283203125	-1285.361328125	-464.4735717773439	1249.761596679688	-1301.25830078125	-535.7318725585939	1242.288208007813	-1255.690673828125	-431.823944091797	1018.754211425781	-1140.63623046875	-393.566131591797	998.5540161132815	-1194.997680664063	-379.4931945800782	1007.58056640625	-1097.70458984375	-428.0133361816407	1507.2158203125	-720.7727661132814	-514.6893310546876	1338.871459960938	-592.9966430664064	-481.7097778320314	1300.504272460938	-592.0141601562501	-525.6960449218751	1277.592041015625	-559.5187377929689	-521.1553344726564	1216.115600585938	-543.7968750000001	-588.1967773437501	1203.818481445313	-599.3803710937501	-452.2413635253907	997.1965942382815	-705.8754882812501	-426.028289794922	975.5714111328127	-642.3236694335939	-388.8668518066407	994.4363403320315	-742.1860351562501	-348.2203674316407	1027.904907226563	-1034.303588867188	-352.0323486328126	1005.890747070313	-814.451110839844	-516.5619506835939	1083.530517578125	-923.6500244140627	-521.7349243164064	1051.832397460938	-951.1826171875002	-468.5866699218751	808.7017822265627	-1123.411254882813	-441.1910705566407	729.3729248046876	-1131.748168945313	-393.3760375976564	727.8618164062501	-1125.552490234375	-472.3235778808595	677.9390258789064	-1121.734375	-468.4561157226564	517.7634277343751	-1122.3671875	-452.1170654296876	497.3219299316407	-1003.324279785156	-441.0025634765626	336.3960876464844	-1075.822265625	-473.5606079101564	298.4231872558594	-1150.294555664063	-440.047576904297	293.6283569335938	-1117.22509765625	-450.2637939453126	212.2449493408204	-1096.934692382813	-502.0806579589845	97.1490173339844	-1154.216796875	-476.1186828613282	99.61728668212893	-1071.370971679688	-555.4471435546876	48.24679183959962	-1105.5478515625	-338.3562316894532	62.33382034301759	-1103.655029296875	-343.5291442871094	64.8359832763672	-1149.703735351563	-381.6250000000001	42.08163833618165	-1193.9599609375	-465.2247619628907	754.7941894531251	-736.0784301757814	-427.5420837402345	699.7634887695314	-726.4611816406251	-394.2542114257814	700.2821044921876	-730.9246215820314	-454.4373779296876	620.2501831054689	-740.2205200195314	-459.8389282226564	506.3430480957032	-743.1601562500001	-460.2748413085939	491.792205810547	-866.0889892578127	-421.5088806152345	375.9263305664063	-758.4995117187501	-496.0915527343751	311.1499328613282	-709.3651123046876	-453.9494934082032	301.0366516113282	-724.6002807617189	-445.4781494140626	248.0306396484376	-746.1162109375001	-516.1297607421876	96.47535705566409	-723.0874633789064	-492.012664794922	99.59360504150393	-804.4199218750002	-567.6871948242189	50.03572845458986	-768.4488525390627	-355.2125854492188	62.86836242675783	-772.3332519531252	-351.5182189941407	60.26749420166017	-734.8676757812501	-389.3672485351564	41.25164413452149	-683.3646850585939	nan	nan	nan	nan	nan	nan	
217	1.08	-275.2221679687501	1745.560546875	-866.3081054687502	-382.4647216796876	1727.1806640625	-980.7173461914065	-471.6284790039064	1709.0205078125	-842.7036743164065	-495.3641967773439	1540.605712890625	-924.5573730468752	-532.5974121093751	1235.911743164063	-929.8753051757815	-362.7952575683594	1485.634399414063	-910.783386230469	-385.590789794922	1532.266357421875	-1095.358276367188	-455.3257141113282	1368.163330078125	-1250.511596679688	-424.667449951172	1327.959594726563	-1243.399047851563	-465.199432373047	1308.654174804688	-1285.338623046875	-464.500213623047	1249.826416015625	-1301.275268554688	-535.8217773437501	1242.317993164063	-1255.630493164063	-431.8181762695314	1018.707092285156	-1140.611083984375	-393.5357055664064	998.8845825195315	-1195.03125	-379.5386047363282	1007.55908203125	-1097.71142578125	-427.9998779296876	1507.217895507813	-720.7723999023439	-514.4744262695314	1338.84228515625	-593.0349731445314	-481.6104125976564	1300.47607421875	-591.9541625976564	-525.3922729492189	1277.57666015625	-559.5493164062501	-520.9960937500001	1216.259033203125	-543.8808593750001	-588.1078491210939	1203.85546875	-599.3429565429689	-452.2531127929689	997.2319335937502	-705.9025268554689	-425.921356201172	975.5100708007815	-642.3271484375001	-388.8684692382814	994.3625488281252	-742.1976928710939	-348.3300476074219	1027.85888671875	-1034.29638671875	-352.0013427734376	1005.917785644531	-814.4636230468752	-516.4706420898439	1083.548828125	-923.6412353515627	-521.7343750000001	1051.817504882813	-951.2031250000002	-468.6846923828126	808.7114257812502	-1123.409912109375	-441.2443237304689	729.4146118164064	-1131.71337890625	-393.4607849121095	727.8911132812501	-1125.596801757813	-472.3999633789064	677.9682006835939	-1121.691284179688	-468.4624633789064	517.7439575195314	-1122.369140625	-451.9914550781251	497.3064270019532	-1003.338684082031	-440.9912109375001	336.4034729003907	-1075.817504882813	-473.6516723632814	298.4110107421876	-1150.25341796875	-440.0636596679689	293.5420532226563	-1117.26318359375	-450.2654113769532	212.2452697753907	-1096.930419921875	-502.0770874023439	97.12178802490237	-1154.200317382813	-476.1573791503907	99.61554718017581	-1071.363891601563	-555.4414062500001	48.22691726684572	-1105.534545898438	-338.6167907714844	61.87559890747072	-1103.336059570313	-343.3311157226563	64.16387176513673	-1149.525634765625	-381.6263732910157	42.03789520263673	-1193.997192382813	-465.1983032226564	754.7748413085939	-736.0480346679689	-427.5292053222657	699.7083740234376	-726.4983520507814	-394.271209716797	700.2364501953126	-730.8722534179689	-454.4139099121095	620.2539062500001	-740.2273559570314	-459.8416442871095	506.3367614746095	-743.1630859375001	-460.2476501464845	491.7783508300782	-866.0878906250002	-421.4974060058595	375.8829040527344	-758.4788818359376	-496.1024169921876	311.1465148925782	-709.3891601562501	-453.9494018554689	300.9948425292969	-724.6022338867189	-445.4900512695314	248.1493072509766	-746.0780639648439	-516.0989379882814	96.52649688720706	-723.0841064453126	-491.984832763672	99.60765075683597	-804.4282836914065	-567.7232055664064	50.03038787841798	-768.391784667969	-355.2178344726563	62.8706512451172	-772.3330688476565	-351.5261230468751	60.24865341186525	-734.7883911132814	-389.3875732421876	41.23410034179688	-683.3503417968751	nan	nan	nan	nan	nan	nan	
